<mxfile host="app.diagrams.net" agent="Mozilla/5.0 (Windows NT 10.0; Win64; x64) AppleWebKit/537.36 (KHTML, like Gecko) Chrome/130.0.0.0 Safari/537.36" version="24.8.3">
  <diagram name="Page-1" id="PkyXtbD7RMUAfJ6heSM2">
    <mxGraphModel dx="2284" dy="746" grid="1" gridSize="10" guides="1" tooltips="1" connect="1" arrows="1" fold="1" page="1" pageScale="1" pageWidth="850" pageHeight="1100" math="0" shadow="0">
      <root>
        <mxCell id="0" />
        <mxCell id="1" parent="0" />
        <mxCell id="jWET1PcR0gpjG8ZoI9SM-1" value="" style="ellipse;whiteSpace=wrap;html=1;aspect=fixed;fillColor=#000000;" vertex="1" parent="1">
          <mxGeometry x="385" y="60" width="30" height="30" as="geometry" />
        </mxCell>
        <mxCell id="jWET1PcR0gpjG8ZoI9SM-2" value="" style="endArrow=classic;html=1;rounded=0;" edge="1" parent="1">
          <mxGeometry width="50" height="50" relative="1" as="geometry">
            <mxPoint x="399.5" y="90" as="sourcePoint" />
            <mxPoint x="400" y="130" as="targetPoint" />
          </mxGeometry>
        </mxCell>
        <mxCell id="jWET1PcR0gpjG8ZoI9SM-3" value="Print Instructions" style="rounded=1;whiteSpace=wrap;html=1;" vertex="1" parent="1">
          <mxGeometry x="325" y="130" width="150" height="40" as="geometry" />
        </mxCell>
        <mxCell id="jWET1PcR0gpjG8ZoI9SM-4" value="main {" style="text;html=1;align=center;verticalAlign=middle;whiteSpace=wrap;rounded=0;" vertex="1" parent="1">
          <mxGeometry x="325" y="30" width="60" height="30" as="geometry" />
        </mxCell>
        <mxCell id="jWET1PcR0gpjG8ZoI9SM-10" style="edgeStyle=orthogonalEdgeStyle;rounded=0;orthogonalLoop=1;jettySize=auto;html=1;exitX=0.5;exitY=1;exitDx=0;exitDy=0;" edge="1" parent="1" source="jWET1PcR0gpjG8ZoI9SM-5" target="jWET1PcR0gpjG8ZoI9SM-7">
          <mxGeometry relative="1" as="geometry" />
        </mxCell>
        <mxCell id="jWET1PcR0gpjG8ZoI9SM-5" value="Prompt user for strand entry" style="rounded=1;whiteSpace=wrap;html=1;" vertex="1" parent="1">
          <mxGeometry x="317.5" y="210" width="165" height="40" as="geometry" />
        </mxCell>
        <mxCell id="jWET1PcR0gpjG8ZoI9SM-6" value="" style="endArrow=classic;html=1;rounded=0;" edge="1" parent="1">
          <mxGeometry width="50" height="50" relative="1" as="geometry">
            <mxPoint x="399.5" y="170" as="sourcePoint" />
            <mxPoint x="400" y="210" as="targetPoint" />
          </mxGeometry>
        </mxCell>
        <mxCell id="jWET1PcR0gpjG8ZoI9SM-13" style="edgeStyle=orthogonalEdgeStyle;rounded=1;orthogonalLoop=1;jettySize=auto;html=1;exitX=0;exitY=0.5;exitDx=0;exitDy=0;entryX=0.5;entryY=1;entryDx=0;entryDy=0;curved=0;" edge="1" parent="1" source="jWET1PcR0gpjG8ZoI9SM-7" target="jWET1PcR0gpjG8ZoI9SM-12">
          <mxGeometry relative="1" as="geometry" />
        </mxCell>
        <mxCell id="jWET1PcR0gpjG8ZoI9SM-17" style="edgeStyle=orthogonalEdgeStyle;rounded=0;orthogonalLoop=1;jettySize=auto;html=1;exitX=0.5;exitY=1;exitDx=0;exitDy=0;" edge="1" parent="1" source="jWET1PcR0gpjG8ZoI9SM-7" target="jWET1PcR0gpjG8ZoI9SM-16">
          <mxGeometry relative="1" as="geometry" />
        </mxCell>
        <mxCell id="jWET1PcR0gpjG8ZoI9SM-7" value="" style="rhombus;whiteSpace=wrap;html=1;" vertex="1" parent="1">
          <mxGeometry x="375" y="290" width="50" height="50" as="geometry" />
        </mxCell>
        <mxCell id="jWET1PcR0gpjG8ZoI9SM-14" style="edgeStyle=orthogonalEdgeStyle;rounded=1;orthogonalLoop=1;jettySize=auto;html=1;exitX=0.5;exitY=0;exitDx=0;exitDy=0;entryX=0;entryY=0.5;entryDx=0;entryDy=0;curved=0;" edge="1" parent="1" source="jWET1PcR0gpjG8ZoI9SM-12" target="jWET1PcR0gpjG8ZoI9SM-5">
          <mxGeometry relative="1" as="geometry" />
        </mxCell>
        <mxCell id="jWET1PcR0gpjG8ZoI9SM-12" value="print(Sorry not valid!)" style="rounded=1;whiteSpace=wrap;html=1;" vertex="1" parent="1">
          <mxGeometry x="160" y="260" width="120" height="30" as="geometry" />
        </mxCell>
        <mxCell id="jWET1PcR0gpjG8ZoI9SM-15" value="while(valid_strand != 1){" style="text;html=1;align=center;verticalAlign=middle;whiteSpace=wrap;rounded=0;" vertex="1" parent="1">
          <mxGeometry x="187.5" y="320" width="137.5" height="30" as="geometry" />
        </mxCell>
        <mxCell id="jWET1PcR0gpjG8ZoI9SM-19" style="edgeStyle=orthogonalEdgeStyle;rounded=0;orthogonalLoop=1;jettySize=auto;html=1;exitX=0.5;exitY=1;exitDx=0;exitDy=0;" edge="1" parent="1" source="jWET1PcR0gpjG8ZoI9SM-16" target="jWET1PcR0gpjG8ZoI9SM-18">
          <mxGeometry relative="1" as="geometry" />
        </mxCell>
        <mxCell id="jWET1PcR0gpjG8ZoI9SM-16" value="Print User Strand" style="rounded=1;whiteSpace=wrap;html=1;" vertex="1" parent="1">
          <mxGeometry x="317.5" y="380" width="165" height="40" as="geometry" />
        </mxCell>
        <mxCell id="jWET1PcR0gpjG8ZoI9SM-22" style="edgeStyle=orthogonalEdgeStyle;rounded=0;orthogonalLoop=1;jettySize=auto;html=1;exitX=0.5;exitY=1;exitDx=0;exitDy=0;entryX=0.5;entryY=0;entryDx=0;entryDy=0;" edge="1" parent="1" source="jWET1PcR0gpjG8ZoI9SM-18" target="jWET1PcR0gpjG8ZoI9SM-20">
          <mxGeometry relative="1" as="geometry" />
        </mxCell>
        <mxCell id="jWET1PcR0gpjG8ZoI9SM-18" value="get_instructions_and_folding(userstrand)" style="rounded=1;whiteSpace=wrap;html=1;" vertex="1" parent="1">
          <mxGeometry x="283.75" y="460" width="232.5" height="40" as="geometry" />
        </mxCell>
        <mxCell id="jWET1PcR0gpjG8ZoI9SM-24" style="edgeStyle=orthogonalEdgeStyle;rounded=0;orthogonalLoop=1;jettySize=auto;html=1;exitX=0.5;exitY=1;exitDx=0;exitDy=0;entryX=0.5;entryY=0;entryDx=0;entryDy=0;" edge="1" parent="1" source="jWET1PcR0gpjG8ZoI9SM-20" target="jWET1PcR0gpjG8ZoI9SM-21">
          <mxGeometry relative="1" as="geometry" />
        </mxCell>
        <mxCell id="jWET1PcR0gpjG8ZoI9SM-20" value="Print all strand instructions" style="rounded=1;whiteSpace=wrap;html=1;" vertex="1" parent="1">
          <mxGeometry x="317.5" y="520" width="165" height="40" as="geometry" />
        </mxCell>
        <mxCell id="jWET1PcR0gpjG8ZoI9SM-26" style="edgeStyle=orthogonalEdgeStyle;rounded=0;orthogonalLoop=1;jettySize=auto;html=1;exitX=0.5;exitY=1;exitDx=0;exitDy=0;" edge="1" parent="1" source="jWET1PcR0gpjG8ZoI9SM-21" target="jWET1PcR0gpjG8ZoI9SM-25">
          <mxGeometry relative="1" as="geometry" />
        </mxCell>
        <mxCell id="jWET1PcR0gpjG8ZoI9SM-21" value="Print total strand folding pattern" style="rounded=1;whiteSpace=wrap;html=1;" vertex="1" parent="1">
          <mxGeometry x="317.5" y="580" width="165" height="40" as="geometry" />
        </mxCell>
        <mxCell id="jWET1PcR0gpjG8ZoI9SM-36" style="edgeStyle=orthogonalEdgeStyle;rounded=0;orthogonalLoop=1;jettySize=auto;html=1;exitX=0.5;exitY=1;exitDx=0;exitDy=0;" edge="1" parent="1" source="jWET1PcR0gpjG8ZoI9SM-25" target="jWET1PcR0gpjG8ZoI9SM-34">
          <mxGeometry relative="1" as="geometry" />
        </mxCell>
        <mxCell id="jWET1PcR0gpjG8ZoI9SM-25" value="Get number of enzymes encoded for and print" style="rounded=1;whiteSpace=wrap;html=1;" vertex="1" parent="1">
          <mxGeometry x="317.5" y="650" width="165" height="40" as="geometry" />
        </mxCell>
        <mxCell id="jWET1PcR0gpjG8ZoI9SM-35" style="edgeStyle=orthogonalEdgeStyle;rounded=1;orthogonalLoop=1;jettySize=auto;html=1;exitX=0;exitY=0.5;exitDx=0;exitDy=0;entryX=0;entryY=0.5;entryDx=0;entryDy=0;curved=0;" edge="1" parent="1" source="jWET1PcR0gpjG8ZoI9SM-27" target="jWET1PcR0gpjG8ZoI9SM-34">
          <mxGeometry relative="1" as="geometry">
            <Array as="points">
              <mxPoint x="130" y="1325" />
              <mxPoint x="130" y="750" />
            </Array>
          </mxGeometry>
        </mxCell>
        <mxCell id="jWET1PcR0gpjG8ZoI9SM-50" style="edgeStyle=orthogonalEdgeStyle;rounded=0;orthogonalLoop=1;jettySize=auto;html=1;exitX=0.5;exitY=1;exitDx=0;exitDy=0;entryX=0.5;entryY=0;entryDx=0;entryDy=0;" edge="1" parent="1" source="jWET1PcR0gpjG8ZoI9SM-27" target="jWET1PcR0gpjG8ZoI9SM-47">
          <mxGeometry relative="1" as="geometry" />
        </mxCell>
        <mxCell id="jWET1PcR0gpjG8ZoI9SM-27" value="" style="rhombus;whiteSpace=wrap;html=1;" vertex="1" parent="1">
          <mxGeometry x="375" y="1300" width="50" height="50" as="geometry" />
        </mxCell>
        <mxCell id="jWET1PcR0gpjG8ZoI9SM-28" value="while(enzymecount &amp;gt; 0){" style="text;html=1;align=center;verticalAlign=middle;whiteSpace=wrap;rounded=0;" vertex="1" parent="1">
          <mxGeometry x="-20" y="950" width="137.5" height="30" as="geometry" />
        </mxCell>
        <mxCell id="jWET1PcR0gpjG8ZoI9SM-72" style="edgeStyle=orthogonalEdgeStyle;rounded=0;orthogonalLoop=1;jettySize=auto;html=1;exitX=0.5;exitY=1;exitDx=0;exitDy=0;entryX=0.5;entryY=0;entryDx=0;entryDy=0;" edge="1" parent="1" source="jWET1PcR0gpjG8ZoI9SM-29" target="jWET1PcR0gpjG8ZoI9SM-71">
          <mxGeometry relative="1" as="geometry" />
        </mxCell>
        <mxCell id="jWET1PcR0gpjG8ZoI9SM-29" value="Generate arrow under selected element" style="rounded=1;whiteSpace=wrap;html=1;" vertex="1" parent="1">
          <mxGeometry x="520" y="1130" width="165" height="40" as="geometry" />
        </mxCell>
        <mxCell id="jWET1PcR0gpjG8ZoI9SM-41" style="edgeStyle=orthogonalEdgeStyle;rounded=0;orthogonalLoop=1;jettySize=auto;html=1;exitX=0.5;exitY=1;exitDx=0;exitDy=0;entryX=0.5;entryY=0;entryDx=0;entryDy=0;" edge="1" parent="1" source="jWET1PcR0gpjG8ZoI9SM-34" target="jWET1PcR0gpjG8ZoI9SM-39">
          <mxGeometry relative="1" as="geometry" />
        </mxCell>
        <mxCell id="jWET1PcR0gpjG8ZoI9SM-34" value="Get Enzyme X folds and instructions" style="rounded=1;whiteSpace=wrap;html=1;" vertex="1" parent="1">
          <mxGeometry x="317.5" y="730" width="165" height="40" as="geometry" />
        </mxCell>
        <mxCell id="jWET1PcR0gpjG8ZoI9SM-42" style="edgeStyle=orthogonalEdgeStyle;rounded=0;orthogonalLoop=1;jettySize=auto;html=1;exitX=0.5;exitY=1;exitDx=0;exitDy=0;entryX=0.5;entryY=0;entryDx=0;entryDy=0;" edge="1" parent="1" source="jWET1PcR0gpjG8ZoI9SM-39" target="jWET1PcR0gpjG8ZoI9SM-40">
          <mxGeometry relative="1" as="geometry" />
        </mxCell>
        <mxCell id="jWET1PcR0gpjG8ZoI9SM-39" value="Print Enzyme X instructions" style="rounded=1;whiteSpace=wrap;html=1;" vertex="1" parent="1">
          <mxGeometry x="317.5" y="790" width="165" height="40" as="geometry" />
        </mxCell>
        <mxCell id="jWET1PcR0gpjG8ZoI9SM-44" style="edgeStyle=orthogonalEdgeStyle;rounded=0;orthogonalLoop=1;jettySize=auto;html=1;exitX=0.5;exitY=1;exitDx=0;exitDy=0;entryX=0.5;entryY=0;entryDx=0;entryDy=0;" edge="1" parent="1" source="jWET1PcR0gpjG8ZoI9SM-40" target="jWET1PcR0gpjG8ZoI9SM-43">
          <mxGeometry relative="1" as="geometry" />
        </mxCell>
        <mxCell id="jWET1PcR0gpjG8ZoI9SM-40" value="Print Enzyme X folding pattern" style="rounded=1;whiteSpace=wrap;html=1;" vertex="1" parent="1">
          <mxGeometry x="313.75" y="850" width="172.5" height="40" as="geometry" />
        </mxCell>
        <mxCell id="jWET1PcR0gpjG8ZoI9SM-56" style="edgeStyle=orthogonalEdgeStyle;rounded=0;orthogonalLoop=1;jettySize=auto;html=1;exitX=0.5;exitY=1;exitDx=0;exitDy=0;entryX=0.5;entryY=0;entryDx=0;entryDy=0;" edge="1" parent="1" source="jWET1PcR0gpjG8ZoI9SM-43" target="jWET1PcR0gpjG8ZoI9SM-53">
          <mxGeometry relative="1" as="geometry" />
        </mxCell>
        <mxCell id="jWET1PcR0gpjG8ZoI9SM-43" value="Calculate Starting Base" style="rounded=1;whiteSpace=wrap;html=1;" vertex="1" parent="1">
          <mxGeometry x="313.75" y="910" width="172.5" height="40" as="geometry" />
        </mxCell>
        <mxCell id="jWET1PcR0gpjG8ZoI9SM-79" style="edgeStyle=orthogonalEdgeStyle;rounded=0;orthogonalLoop=1;jettySize=auto;html=1;exitX=0.5;exitY=1;exitDx=0;exitDy=0;entryX=0.5;entryY=0;entryDx=0;entryDy=0;" edge="1" parent="1" source="jWET1PcR0gpjG8ZoI9SM-45" target="jWET1PcR0gpjG8ZoI9SM-29">
          <mxGeometry relative="1" as="geometry" />
        </mxCell>
        <mxCell id="jWET1PcR0gpjG8ZoI9SM-45" value="Prompt user for starting base&lt;span style=&quot;background-color: initial;&quot;&gt;&amp;nbsp;entry&lt;/span&gt;" style="rounded=1;whiteSpace=wrap;html=1;" vertex="1" parent="1">
          <mxGeometry x="516.25" y="1075" width="172.5" height="40" as="geometry" />
        </mxCell>
        <mxCell id="jWET1PcR0gpjG8ZoI9SM-47" value="" style="ellipse;whiteSpace=wrap;html=1;aspect=fixed;" vertex="1" parent="1">
          <mxGeometry x="377.5" y="1380" width="45" height="45" as="geometry" />
        </mxCell>
        <mxCell id="jWET1PcR0gpjG8ZoI9SM-49" value="" style="ellipse;whiteSpace=wrap;html=1;aspect=fixed;fillColor=#000000;" vertex="1" parent="1">
          <mxGeometry x="385" y="1387.5" width="30" height="30" as="geometry" />
        </mxCell>
        <mxCell id="jWET1PcR0gpjG8ZoI9SM-61" style="edgeStyle=orthogonalEdgeStyle;rounded=0;orthogonalLoop=1;jettySize=auto;html=1;exitX=0.5;exitY=1;exitDx=0;exitDy=0;entryX=0.5;entryY=0;entryDx=0;entryDy=0;" edge="1" parent="1" source="jWET1PcR0gpjG8ZoI9SM-51" target="jWET1PcR0gpjG8ZoI9SM-45">
          <mxGeometry relative="1" as="geometry" />
        </mxCell>
        <mxCell id="jWET1PcR0gpjG8ZoI9SM-51" value="" style="rhombus;whiteSpace=wrap;html=1;" vertex="1" parent="1">
          <mxGeometry x="577.5" y="1010" width="50" height="50" as="geometry" />
        </mxCell>
        <mxCell id="jWET1PcR0gpjG8ZoI9SM-52" value="if # of matching elements is &amp;gt; 1&amp;nbsp;" style="text;html=1;align=center;verticalAlign=middle;whiteSpace=wrap;rounded=0;" vertex="1" parent="1">
          <mxGeometry x="516.25" y="980" width="137.5" height="30" as="geometry" />
        </mxCell>
        <mxCell id="jWET1PcR0gpjG8ZoI9SM-59" style="edgeStyle=orthogonalEdgeStyle;rounded=0;orthogonalLoop=1;jettySize=auto;html=1;exitX=1;exitY=0.5;exitDx=0;exitDy=0;entryX=0;entryY=0.5;entryDx=0;entryDy=0;" edge="1" parent="1" source="jWET1PcR0gpjG8ZoI9SM-53" target="jWET1PcR0gpjG8ZoI9SM-51">
          <mxGeometry relative="1" as="geometry">
            <mxPoint x="560" y="1035" as="targetPoint" />
          </mxGeometry>
        </mxCell>
        <mxCell id="jWET1PcR0gpjG8ZoI9SM-53" value="" style="rhombus;whiteSpace=wrap;html=1;" vertex="1" parent="1">
          <mxGeometry x="375" y="1010" width="50" height="50" as="geometry" />
        </mxCell>
        <mxCell id="jWET1PcR0gpjG8ZoI9SM-54" value="if # of matching elements is = 0&amp;nbsp;" style="text;html=1;align=center;verticalAlign=middle;whiteSpace=wrap;rounded=0;" vertex="1" parent="1">
          <mxGeometry x="247.5" y="1000" width="137.5" height="30" as="geometry" />
        </mxCell>
        <mxCell id="jWET1PcR0gpjG8ZoI9SM-58" value="false" style="text;html=1;align=center;verticalAlign=middle;resizable=0;points=[];autosize=1;strokeColor=none;fillColor=none;" vertex="1" parent="1">
          <mxGeometry x="422.5" y="1010" width="50" height="30" as="geometry" />
        </mxCell>
        <mxCell id="jWET1PcR0gpjG8ZoI9SM-68" style="edgeStyle=orthogonalEdgeStyle;rounded=1;orthogonalLoop=1;jettySize=auto;html=1;exitX=0.5;exitY=1;exitDx=0;exitDy=0;entryX=1;entryY=0.5;entryDx=0;entryDy=0;curved=0;" edge="1" parent="1" source="jWET1PcR0gpjG8ZoI9SM-64" target="jWET1PcR0gpjG8ZoI9SM-29">
          <mxGeometry relative="1" as="geometry">
            <Array as="points">
              <mxPoint x="806" y="1150" />
            </Array>
          </mxGeometry>
        </mxCell>
        <mxCell id="jWET1PcR0gpjG8ZoI9SM-64" value="Auto select only choice" style="rounded=1;whiteSpace=wrap;html=1;" vertex="1" parent="1">
          <mxGeometry x="720" y="1125" width="172.5" height="40" as="geometry" />
        </mxCell>
        <mxCell id="jWET1PcR0gpjG8ZoI9SM-65" value="true" style="text;html=1;align=center;verticalAlign=middle;resizable=0;points=[];autosize=1;strokeColor=none;fillColor=none;" vertex="1" parent="1">
          <mxGeometry x="560" y="1050" width="40" height="30" as="geometry" />
        </mxCell>
        <mxCell id="jWET1PcR0gpjG8ZoI9SM-66" value="false" style="text;html=1;align=center;verticalAlign=middle;resizable=0;points=[];autosize=1;strokeColor=none;fillColor=none;" vertex="1" parent="1">
          <mxGeometry x="627.5" y="1010" width="50" height="30" as="geometry" />
        </mxCell>
        <mxCell id="jWET1PcR0gpjG8ZoI9SM-67" style="edgeStyle=orthogonalEdgeStyle;rounded=1;orthogonalLoop=1;jettySize=auto;html=1;exitX=1;exitY=0.5;exitDx=0;exitDy=0;entryX=0.5;entryY=0;entryDx=0;entryDy=0;curved=0;" edge="1" parent="1" source="jWET1PcR0gpjG8ZoI9SM-51" target="jWET1PcR0gpjG8ZoI9SM-64">
          <mxGeometry relative="1" as="geometry" />
        </mxCell>
        <mxCell id="jWET1PcR0gpjG8ZoI9SM-70" style="edgeStyle=orthogonalEdgeStyle;rounded=0;orthogonalLoop=1;jettySize=auto;html=1;exitX=0.5;exitY=1;exitDx=0;exitDy=0;entryX=0.5;entryY=0;entryDx=0;entryDy=0;" edge="1" parent="1" source="jWET1PcR0gpjG8ZoI9SM-69" target="jWET1PcR0gpjG8ZoI9SM-27">
          <mxGeometry relative="1" as="geometry" />
        </mxCell>
        <mxCell id="jWET1PcR0gpjG8ZoI9SM-69" value="decrement enzymecount" style="rounded=1;whiteSpace=wrap;html=1;" vertex="1" parent="1">
          <mxGeometry x="321.25" y="1240" width="165" height="40" as="geometry" />
        </mxCell>
        <mxCell id="jWET1PcR0gpjG8ZoI9SM-75" style="edgeStyle=orthogonalEdgeStyle;rounded=1;orthogonalLoop=1;jettySize=auto;html=1;exitX=0.5;exitY=1;exitDx=0;exitDy=0;entryX=1;entryY=0.5;entryDx=0;entryDy=0;curved=0;" edge="1" parent="1" source="jWET1PcR0gpjG8ZoI9SM-71" target="jWET1PcR0gpjG8ZoI9SM-69">
          <mxGeometry relative="1" as="geometry" />
        </mxCell>
        <mxCell id="jWET1PcR0gpjG8ZoI9SM-71" value="Execute instructions sequentially" style="rounded=1;whiteSpace=wrap;html=1;" vertex="1" parent="1">
          <mxGeometry x="520" y="1190" width="165" height="40" as="geometry" />
        </mxCell>
        <mxCell id="jWET1PcR0gpjG8ZoI9SM-76" style="edgeStyle=orthogonalEdgeStyle;rounded=0;orthogonalLoop=1;jettySize=auto;html=1;exitX=0.5;exitY=1;exitDx=0;exitDy=0;" edge="1" parent="1" source="jWET1PcR0gpjG8ZoI9SM-53">
          <mxGeometry relative="1" as="geometry">
            <mxPoint x="400" y="1240" as="targetPoint" />
            <Array as="points">
              <mxPoint x="400" y="1240" />
            </Array>
          </mxGeometry>
        </mxCell>
        <mxCell id="jWET1PcR0gpjG8ZoI9SM-77" value="true" style="text;html=1;align=center;verticalAlign=middle;resizable=0;points=[];autosize=1;strokeColor=none;fillColor=none;" vertex="1" parent="1">
          <mxGeometry x="360" y="1130" width="40" height="30" as="geometry" />
        </mxCell>
      </root>
    </mxGraphModel>
  </diagram>
</mxfile>
